<svg width="188" height="149" viewBox="0 0 188 149" fill="none" xmlns="http://www.w3.org/2000/svg">
<g clip-path="url(#clip0_247_94)">
<path d="M44.6252 0C37.2833 0 30.2422 2.90412 25.0508 8.0735L8.10801 24.9442C2.91653 30.1135 0 37.1246 0 44.4353C0 59.659 12.3939 72 27.6825 72C35.0244 72 42.0655 69.0958 47.2569 63.9264L58.9763 52.2569C58.9766 52.2571 58.9763 52.2566 58.9763 52.2569L93.1227 18.2558C95.6021 15.787 98.9649 14.4 102.471 14.4C108.342 14.4 113.319 18.2098 115.044 23.4818L125.821 12.7511C120.904 5.08402 112.284 0 102.471 0C95.1294 0 88.0884 2.90412 82.8969 8.0735L37.0312 53.7442C34.5517 56.213 31.189 57.6 27.6825 57.6C20.3807 57.6 14.4615 51.7061 14.4615 44.4353C14.4615 40.9438 15.8544 37.5953 18.3339 35.1264L35.2765 18.2558C37.7559 15.787 41.1187 14.4 44.6252 14.4C50.4958 14.4 55.4725 18.21 57.198 23.4821L67.9748 12.7514C63.0586 5.08416 54.4383 0 44.6252 0Z" fill="white"/>
<path d="M94.8777 53.7442C92.3983 56.213 89.0355 57.6 85.5291 57.6C79.6594 57.6 74.6829 53.7912 72.9569 48.5201L62.1807 59.2505C67.0971 66.9166 75.7169 72 85.5291 72C92.8709 72 99.912 69.0958 105.103 63.9264L150.969 18.2558C153.449 15.787 156.811 14.4 160.318 14.4C167.62 14.4 173.539 20.294 173.539 27.5647C173.539 31.0562 172.146 34.4047 169.667 36.8736L152.724 53.7442C150.244 56.213 146.882 57.6 143.375 57.6C137.505 57.6 132.528 53.7905 130.803 48.5189L120.026 59.2495C124.943 66.9163 133.563 72 143.375 72C150.717 72 157.758 69.0958 162.95 63.9264L179.892 47.0558C185.084 41.8865 188 34.8754 188 27.5647C188 12.3411 175.607 0 160.318 0C152.976 0 145.935 2.90412 140.743 8.0735L94.8777 53.7442Z" fill="white"/>
</g>
<path d="M41.64 133.28C39.5867 133.28 37.7467 132.947 36.12 132.28C34.4933 131.613 33.1867 130.627 32.2 129.32C31.24 128.013 30.7333 126.44 30.68 124.6H37.96C38.0667 125.64 38.4267 126.44 39.04 127C39.6533 127.533 40.4533 127.8 41.44 127.8C42.4533 127.8 43.2533 127.573 43.84 127.12C44.4267 126.64 44.72 125.987 44.72 125.16C44.72 124.467 44.48 123.893 44 123.44C43.5467 122.987 42.9733 122.613 42.28 122.32C41.6133 122.027 40.6533 121.693 39.4 121.32C37.5867 120.76 36.1067 120.2 34.96 119.64C33.8133 119.08 32.8267 118.253 32 117.16C31.1733 116.067 30.76 114.64 30.76 112.88C30.76 110.267 31.7067 108.227 33.6 106.76C35.4933 105.267 37.96 104.52 41 104.52C44.0933 104.52 46.5867 105.267 48.48 106.76C50.3733 108.227 51.3867 110.28 51.52 112.92H44.12C44.0667 112.013 43.7333 111.307 43.12 110.8C42.5067 110.267 41.72 110 40.76 110C39.9333 110 39.2667 110.227 38.76 110.68C38.2533 111.107 38 111.733 38 112.56C38 113.467 38.4267 114.173 39.28 114.68C40.1333 115.187 41.4667 115.733 43.28 116.32C45.0933 116.933 46.56 117.52 47.68 118.08C48.8267 118.64 49.8133 119.453 50.64 120.52C51.4667 121.587 51.88 122.96 51.88 124.64C51.88 126.24 51.4667 127.693 50.64 129C49.84 130.307 48.6667 131.347 47.12 132.12C45.5733 132.893 43.7467 133.28 41.64 133.28ZM66.2494 133.32C64.0627 133.32 62.0894 132.853 60.3294 131.92C58.596 130.987 57.2227 129.653 56.2094 127.92C55.2227 126.187 54.7294 124.16 54.7294 121.84C54.7294 119.547 55.236 117.533 56.2494 115.8C57.2627 114.04 58.6494 112.693 60.4094 111.76C62.1694 110.827 64.1427 110.36 66.3294 110.36C68.516 110.36 70.4894 110.827 72.2494 111.76C74.0094 112.693 75.396 114.04 76.4094 115.8C77.4227 117.533 77.9294 119.547 77.9294 121.84C77.9294 124.133 77.4094 126.16 76.3694 127.92C75.356 129.653 73.956 130.987 72.1694 131.92C70.4094 132.853 68.436 133.32 66.2494 133.32ZM66.2494 127.4C67.556 127.4 68.6627 126.92 69.5694 125.96C70.5027 125 70.9694 123.627 70.9694 121.84C70.9694 120.053 70.516 118.68 69.6094 117.72C68.7294 116.76 67.636 116.28 66.3294 116.28C64.996 116.28 63.8894 116.76 63.0094 117.72C62.1294 118.653 61.6894 120.027 61.6894 121.84C61.6894 123.627 62.116 125 62.9694 125.96C63.8494 126.92 64.9427 127.4 66.2494 127.4ZM95.1581 110.44C97.7715 110.44 99.8515 111.293 101.398 113C102.971 114.68 103.758 117 103.758 119.96V133H96.9581V120.88C96.9581 119.387 96.5715 118.227 95.7981 117.4C95.0248 116.573 93.9848 116.16 92.6781 116.16C91.3715 116.16 90.3315 116.573 89.5581 117.4C88.7848 118.227 88.3981 119.387 88.3981 120.88V133H81.5581V110.68H88.3981V113.64C89.0915 112.653 90.0248 111.88 91.1981 111.32C92.3715 110.733 93.6915 110.44 95.1581 110.44ZM111.951 108.36C110.751 108.36 109.765 108.013 108.991 107.32C108.245 106.6 107.871 105.72 107.871 104.68C107.871 103.613 108.245 102.733 108.991 102.04C109.765 101.32 110.751 100.96 111.951 100.96C113.125 100.96 114.085 101.32 114.831 102.04C115.605 102.733 115.991 103.613 115.991 104.68C115.991 105.72 115.605 106.6 114.831 107.32C114.085 108.013 113.125 108.36 111.951 108.36ZM115.351 110.68V133H108.511V110.68H115.351ZM131.508 116.36H127.828V133H120.988V116.36H118.508V110.68H120.988V110.04C120.988 107.293 121.775 105.213 123.348 103.8C124.921 102.36 127.228 101.64 130.268 101.64C130.775 101.64 131.148 101.653 131.388 101.68V107.48C130.081 107.4 129.161 107.587 128.628 108.04C128.095 108.493 127.828 109.307 127.828 110.48V110.68H131.508V116.36ZM157.522 110.68L143.522 143.6H136.162L141.282 132.24L132.202 110.68H139.842L145.002 124.64L150.122 110.68H157.522Z" fill="white"/>
<defs>
<clipPath id="clip0_247_94">
<rect width="188" height="72" fill="white"/>
</clipPath>
</defs>
</svg>
